<?xml version="1.0" encoding="UTF-8"?>
<!DOCTYPE svg PUBLIC "-//W3C//DTD SVG 1.1//EN" "http://www.w3.org/Graphics/SVG/1.1/DTD/svg11.dtd">
<svg xmlns="http://www.w3.org/2000/svg" version="1.1" width="512px" height="512px" style="shape-rendering:geometricPrecision; text-rendering:geometricPrecision; image-rendering:optimizeQuality; fill-rule:evenodd; clip-rule:evenodd" xmlns:xlink="http://www.w3.org/1999/xlink">
<g><path style="opacity:0.915" fill="#000000" d="M 65.5,50.5 C 192.167,50.3333 318.834,50.5 445.5,51C 459.675,52.8434 468.508,60.6767 472,74.5C 472.667,196.167 472.667,317.833 472,439.5C 468.351,453.817 459.184,461.651 444.5,463C 318.5,463.667 192.5,463.667 66.5,463C 51.7899,461.621 42.6232,453.788 39,439.5C 38.3333,317.833 38.3333,196.167 39,74.5C 42.6625,60.6659 51.4958,52.6659 65.5,50.5 Z M 64.5,64.5 C 191.834,64.3333 319.167,64.5 446.5,65C 451.91,66.7425 455.744,70.2425 458,75.5C 458.5,96.164 458.667,116.831 458.5,137.5C 323.167,137.5 187.833,137.5 52.5,137.5C 52.3334,116.831 52.5,96.164 53,75.5C 55.4373,70.2262 59.2706,66.5595 64.5,64.5 Z M 134.5,92.5 C 145.592,93.0651 149.092,98.3984 145,108.5C 140,113.833 135,113.833 130,108.5C 125.94,101.616 127.44,96.2829 134.5,92.5 Z M 252.5,92.5 C 263.609,93.0794 267.109,98.4128 263,108.5C 258,113.833 253,113.833 248,108.5C 243.94,101.616 245.44,96.2829 252.5,92.5 Z M 370.5,92.5 C 381.609,93.0794 385.109,98.4128 381,108.5C 376,113.833 371,113.833 366,108.5C 361.94,101.616 363.44,96.2829 370.5,92.5 Z M 52.5,151.5 C 187.833,151.5 323.167,151.5 458.5,151.5C 458.667,247.167 458.5,342.834 458,438.5C 455.635,444.202 451.469,447.702 445.5,449C 318.833,449.667 192.167,449.667 65.5,449C 59.5315,447.702 55.3648,444.202 53,438.5C 52.5,342.834 52.3333,247.167 52.5,151.5 Z M 236.5,229.5 C 247.5,229.5 258.5,229.5 269.5,229.5C 269.333,246.837 269.5,264.17 270,281.5C 271.319,283.487 273.152,284.654 275.5,285C 292.163,285.5 308.83,285.667 325.5,285.5C 325.5,296.167 325.5,306.833 325.5,317.5C 307.739,317.027 290.073,317.527 272.5,319C 271.667,319.833 270.833,320.667 270,321.5C 269.5,338.83 269.333,356.163 269.5,373.5C 258.5,373.5 247.5,373.5 236.5,373.5C 236.973,355.406 236.473,337.406 235,319.5C 234.25,318.874 233.416,318.374 232.5,318C 215.17,317.5 197.837,317.333 180.5,317.5C 180.5,306.833 180.5,296.167 180.5,285.5C 197.17,285.667 213.837,285.5 230.5,285C 232.931,284.705 234.764,283.538 236,281.5C 236.5,264.17 236.667,246.837 236.5,229.5 Z"/></g>
<g><path style="opacity:0.912" fill="#000000" d="M 132.5,78.5 C 149.408,77.741 159.075,85.741 161.5,102.5C 157.431,123.039 145.431,129.872 125.5,123C 114.519,114.918 111.352,104.418 116,91.5C 119.962,85.0192 125.462,80.6859 132.5,78.5 Z M 134.5,92.5 C 127.44,96.2829 125.94,101.616 130,108.5C 135,113.833 140,113.833 145,108.5C 149.092,98.3984 145.592,93.0651 134.5,92.5 Z"/></g>
<g><path style="opacity:0.914" fill="#000000" d="M 250.5,78.5 C 267.408,77.741 277.075,85.741 279.5,102.5C 275.431,123.039 263.431,129.872 243.5,123C 227.917,109.789 227.583,96.1227 242.5,82C 245.309,80.9066 247.976,79.7399 250.5,78.5 Z M 252.5,92.5 C 245.44,96.2829 243.94,101.616 248,108.5C 253,113.833 258,113.833 263,108.5C 267.109,98.4128 263.609,93.0794 252.5,92.5 Z"/></g>
<g><path style="opacity:0.914" fill="#000000" d="M 368.5,78.5 C 385.408,77.741 395.075,85.741 397.5,102.5C 393.431,123.039 381.431,129.872 361.5,123C 345.917,109.789 345.583,96.1227 360.5,82C 363.309,80.9066 365.976,79.7399 368.5,78.5 Z M 370.5,92.5 C 363.44,96.2829 361.94,101.616 366,108.5C 371,113.833 376,113.833 381,108.5C 385.109,98.4128 381.609,93.0794 370.5,92.5 Z"/></g>
<g><path style="opacity:0.926" fill="#000000" d="M 226.5,215.5 C 244.927,215.026 263.26,215.526 281.5,217C 282.191,218.067 282.691,219.234 283,220.5C 283.5,237.497 283.667,254.497 283.5,271.5C 301.594,271.027 319.594,271.527 337.5,273C 338.191,274.067 338.691,275.234 339,276.5C 339.667,293.167 339.667,309.833 339,326.5C 338.215,328.286 337.049,329.786 335.5,331C 318.17,331.5 300.837,331.667 283.5,331.5C 283.973,349.261 283.473,366.927 282,384.5C 281.167,385.333 280.333,386.167 279.5,387C 261.833,387.667 244.167,387.667 226.5,387C 225.667,386.167 224.833,385.333 224,384.5C 223.5,366.836 223.333,349.17 223.5,331.5C 205.83,331.667 188.164,331.5 170.5,331C 168.513,329.681 167.346,327.848 167,325.5C 166.333,309.5 166.333,293.5 167,277.5C 167.346,275.152 168.513,273.319 170.5,272C 188.164,271.5 205.83,271.333 223.5,271.5C 223.333,253.83 223.5,236.164 224,218.5C 225.045,217.627 225.878,216.627 226.5,215.5 Z M 236.5,229.5 C 236.667,246.837 236.5,264.17 236,281.5C 234.764,283.538 232.931,284.705 230.5,285C 213.837,285.5 197.17,285.667 180.5,285.5C 180.5,296.167 180.5,306.833 180.5,317.5C 197.837,317.333 215.17,317.5 232.5,318C 233.416,318.374 234.25,318.874 235,319.5C 236.473,337.406 236.973,355.406 236.5,373.5C 247.5,373.5 258.5,373.5 269.5,373.5C 269.333,356.163 269.5,338.83 270,321.5C 270.833,320.667 271.667,319.833 272.5,319C 290.073,317.527 307.739,317.027 325.5,317.5C 325.5,306.833 325.5,296.167 325.5,285.5C 308.83,285.667 292.163,285.5 275.5,285C 273.152,284.654 271.319,283.487 270,281.5C 269.5,264.17 269.333,246.837 269.5,229.5C 258.5,229.5 247.5,229.5 236.5,229.5 Z"/></g>
</svg>
