<?xml version="1.0" encoding="UTF-8"?>
<!DOCTYPE svg PUBLIC "-//W3C//DTD SVG 1.1//EN" "http://www.w3.org/Graphics/SVG/1.1/DTD/svg11.dtd">
<svg xmlns="http://www.w3.org/2000/svg" version="1.1" width="512px" height="512px" style="shape-rendering:geometricPrecision; text-rendering:geometricPrecision; image-rendering:optimizeQuality; fill-rule:evenodd; clip-rule:evenodd" xmlns:xlink="http://www.w3.org/1999/xlink">
<g><path style="opacity:0.961" fill="#000000" d="M 112.5,116.5 C 164.834,116.333 217.168,116.5 269.5,117C 324.466,124.553 362.966,153.72 385,204.5C 389.672,217.354 392.839,230.521 394.5,244C 417.167,244.333 439.833,244.667 462.5,245C 469.696,249.328 471.196,255.162 467,262.5C 465.786,264.049 464.286,265.215 462.5,266C 439.833,266.333 417.167,266.667 394.5,267C 386.008,329.655 351.675,370.655 291.5,390C 283.928,391.873 276.262,393.206 268.5,394C 216.5,394.667 164.5,394.667 112.5,394C 109.272,392.437 107.105,389.937 106,386.5C 105.5,374.838 105.333,363.171 105.5,351.5C 86.1638,351.667 66.8305,351.5 47.5,351C 38.9973,343.036 39.664,336.036 49.5,330C 68.1637,329.5 86.8304,329.333 105.5,329.5C 105.5,280.167 105.5,230.833 105.5,181.5C 86.8304,181.667 68.1637,181.5 49.5,181C 39.664,174.964 38.9973,167.964 47.5,160C 66.8305,159.5 86.1638,159.333 105.5,159.5C 105.333,147.829 105.5,136.162 106,124.5C 107.305,121.039 109.471,118.372 112.5,116.5 Z M 127.5,138.5 C 172.835,138.333 218.168,138.5 263.5,139C 309.688,144.197 342.854,167.697 363,209.5C 383.341,268.664 368.508,316.831 318.5,354C 301.697,364.601 283.364,370.601 263.5,372C 218.168,372.5 172.835,372.667 127.5,372.5C 127.5,294.5 127.5,216.5 127.5,138.5 Z"/></g>
</svg>
