<?xml version="1.0" standalone="no"?>
<!DOCTYPE svg PUBLIC "-//W3C//DTD SVG 20010904//EN"
 "http://www.w3.org/TR/2001/REC-SVG-20010904/DTD/svg10.dtd">
<svg version="1.0" xmlns="http://www.w3.org/2000/svg"
 width="1024.000000pt" height="1024.000000pt" viewBox="0 0 1024.000000 1024.000000"
 preserveAspectRatio="xMidYMid meet">

<g transform="translate(0.000000,1024.000000) scale(0.100000,-0.100000)"
fill="#000000" stroke="none">
<path d="M0 5120 l0 -5120 5120 0 5120 0 0 5120 0 5120 -5120 0 -5120 0 0
-5120z m5480 2772 c279 -68 481 -249 551 -497 21 -74 23 -100 23 -350 1 -228
-1 -275 -15 -300 -9 -16 -26 -52 -39 -78 -52 -107 -189 -162 -312 -125 -50 15
-116 72 -148 129 -24 43 -25 50 -30 304 -6 305 -6 304 -95 349 l-60 31 -1155
3 c-1204 3 -1231 2 -1299 -39 -17 -10 -43 -37 -58 -60 l-28 -43 -5 -700 c-6
-789 -3 -756 -82 -836 -96 -96 -282 -91 -385 10 -30 29 -57 90 -71 160 -4 19
-7 352 -7 740 0 696 0 706 22 785 38 138 85 218 188 322 118 117 239 181 389
203 83 13 2563 5 2616 -8z m2872 -683 c69 -27 120 -77 155 -153 l28 -61 0
-595 0 -595 -28 -100 c-51 -186 -151 -353 -280 -468 -125 -111 -287 -196 -424
-223 -111 -21 -513 -20 -576 2 -51 17 -112 78 -143 142 -27 56 -25 172 4 238
51 114 101 134 327 134 186 0 295 17 360 54 62 37 140 127 167 194 23 57 23
60 28 637 l5 581 35 69 c37 74 103 136 165 154 52 16 122 12 177 -10z m-2918
-535 c9 -8 16 -19 16 -24 0 -18 123 -140 168 -167 44 -25 55 -27 152 -27 75 0
115 5 141 16 58 27 141 95 172 140 58 87 -6 79 601 76 l541 -3 58 -27 c74 -35
159 -120 191 -191 40 -92 47 -174 44 -527 l-3 -325 -155 -5 c-181 -7 -202 -14
-276 -92 -73 -77 -97 -146 -92 -263 9 -236 149 -349 410 -331 87 6 98 5 106
-11 14 -25 14 -611 1 -708 -11 -84 -39 -153 -88 -214 -41 -51 -156 -117 -227
-130 -38 -7 -345 -11 -901 -11 l-843 0 -24 38 c-50 79 -139 152 -216 178 -79
26 -189 24 -262 -5 -71 -28 -151 -99 -184 -163 l-25 -49 -673 3 -673 3 -84 42
c-46 23 -100 59 -121 80 -44 46 -84 138 -97 224 -6 39 -11 465 -12 1084 -1
914 0 1027 15 1089 32 137 129 251 248 293 l63 22 1007 1 c902 0 1008 -2 1022
-16z m-3436 -1594 c67 -30 111 -70 140 -124 l27 -51 5 -690 5 -690 35 -51 c47
-68 105 -118 176 -151 l59 -28 1055 0 1055 0 56 28 c76 37 139 94 174 158 28
51 30 63 35 199 6 160 16 194 74 251 134 132 370 88 447 -83 22 -48 24 -67 24
-193 0 -83 -6 -167 -14 -205 -48 -221 -188 -429 -366 -544 -121 -79 -199 -113
-340 -148 l-90 -23 -1065 0 -1065 0 -85 23 c-157 43 -246 86 -360 172 -98 74
-188 172 -240 259 -53 90 -107 250 -120 360 -7 57 -9 304 -7 703 l5 616 27 61
c31 68 84 123 149 152 55 25 148 25 204 -1z m5192 -2062 c0 9 210 12 1015 12
l1014 0 3 -227 c7 -478 8 -1751 2 -1767 -6 -15 -102 -16 -1135 -16 -1064 0
-1129 1 -1137 17 -8 15 -9 1184 -2 1411 2 55 4 61 16 45 12 -16 12 -16 7 6 -5
19 -3 22 8 16 12 -8 12 -6 0 8 -12 15 -11 17 5 17 17 1 16 3 -5 20 -13 11 -18
20 -12 20 7 0 10 4 7 9 -3 5 2 8 12 7 12 -1 17 6 17 24 -1 26 13 42 28 33 4
-2 2 -12 -5 -20 -12 -15 -11 -15 10 -2 21 13 21 15 5 27 -10 7 -24 10 -33 7
-10 -3 -9 -1 3 9 13 10 15 15 5 18 -8 3 -1 11 17 22 20 11 23 15 8 11 -15 -4
-21 -2 -19 9 1 9 6 19 11 23 4 4 5 2 0 -6 -5 -9 -4 -12 3 -7 7 4 12 14 12 22
0 8 4 13 8 10 4 -2 14 -1 22 5 12 7 12 9 -3 9 -15 0 -14 4 8 23 14 12 27 29
28 37 4 22 17 41 26 36 4 -3 8 1 8 9 0 10 -4 12 -12 5 -7 -6 -15 -3 -22 9 -10
16 -9 18 7 14 24 -6 32 26 12 50 -13 15 -13 17 1 17 10 0 17 8 17 18 0 14 2
15 10 2 8 -12 10 -12 10 5 0 17 2 17 10 5 6 -10 10 -11 10 -2z m-70 -134 c0
-2 -7 -4 -15 -4 -8 0 -15 4 -15 10 0 5 7 7 15 4 8 -4 15 -8 15 -10z m-20 -46
c0 -4 -4 -8 -9 -8 -6 0 -12 4 -15 8 -3 5 1 9 9 9 8 0 15 -4 15 -9z"/>
<path d="M5210 6327 c-30 -15 -49 -65 -49 -134 -1 -28 -5 -54 -9 -57 -5 -3
-50 -14 -101 -26 -176 -39 -297 -123 -359 -250 -38 -78 -52 -145 -52 -252 0
-144 42 -254 127 -333 87 -82 203 -124 336 -125 l57 0 0 -246 0 -246 -42 7
c-122 21 -203 75 -275 188 -42 66 -48 71 -88 68 -154 -12 -179 -153 -56 -308
59 -75 137 -112 346 -163 l110 -27 -4 -107 -3 -107 128 3 129 3 3 105 3 105
84 22 c285 74 455 254 455 483 0 161 -39 276 -123 367 -71 77 -221 136 -372
145 l-40 3 -3 229 -2 229 39 -6 c63 -8 145 -51 198 -104 l50 -48 90 0 c69 1
97 5 118 19 30 20 29 36 -7 113 -31 65 -179 183 -231 183 -8 0 -39 11 -68 24
-30 13 -84 29 -121 36 l-66 12 -4 83 c-4 111 -16 125 -107 125 -36 0 -77 -6
-91 -13z m-50 -677 c0 -285 7 -265 -90 -265 -48 0 -62 5 -98 34 -66 52 -77 80
-77 196 0 112 13 151 69 206 39 39 121 79 164 79 l32 0 0 -250z m375 -451 c52
-14 126 -90 143 -145 46 -156 -31 -309 -186 -367 -37 -14 -70 -23 -74 -20 -10
5 -11 527 -1 536 10 11 73 8 118 -4z"/>
<path d="M7150 2979 c0 -4 6 -9 13 -12 8 -3 14 0 14 7 0 7 -6 13 -14 13 -7 0
-13 -4 -13 -8z"/>
<path d="M7035 2699 c-4 -5 2 -9 12 -10 16 0 16 -1 -2 -9 -17 -7 -17 -9 -3 -9
10 -1 22 7 27 17 7 14 6 18 -10 19 -10 1 -21 -2 -24 -8z"/>
<path d="M8856 2509 l-26 -20 0 -183 c0 -218 1 -216 -101 -216 -115 0 -109 -8
-109 149 0 151 -6 173 -59 208 l-34 23 -478 0 -479 0 -32 -29 c-29 -25 -33
-36 -32 -75 1 -29 -4 -47 -13 -50 -7 -3 -13 -14 -13 -25 0 -16 -9 -21 -47 -26
-211 -27 -312 -225 -259 -504 19 -101 53 -147 136 -188 l65 -33 254 0 c236 0
258 1 297 20 41 21 134 104 134 121 0 5 104 9 231 9 218 0 233 1 260 21 43 30
69 88 69 152 0 53 1 55 31 61 17 3 60 6 95 6 98 0 155 16 196 55 50 49 58 89
58 279 0 192 -8 223 -63 249 -45 22 -49 21 -81 -4z m-960 -216 l-3 -28 -127
-3 -126 -3 0 31 0 30 129 0 130 0 -3 -27z m549 -213 l0 -225 -127 -3 c-95 -2
-136 1 -163 12 l-36 15 42 66 c71 113 71 179 -2 204 -16 5 -29 15 -29 20 0 6
-7 11 -15 11 -11 0 -15 12 -15 49 0 27 -3 57 -6 65 -6 15 12 16 172 14 l179
-3 0 -225z m-978 -124 c-6 -125 -5 -135 14 -160 29 -37 69 -55 137 -62 44 -5
66 -2 90 10 18 9 55 16 92 16 60 0 60 0 60 -30 0 -25 -4 -30 -34 -35 -19 -4
-119 -5 -223 -3 -163 3 -192 5 -215 22 -39 26 -51 75 -46 193 2 84 7 106 24
130 23 31 59 53 88 53 18 0 19 -7 13 -134z m467 107 c-4 -10 -7 -46 -6 -80 3
-50 0 -63 -12 -63 -8 0 -21 -3 -30 -6 -12 -4 -16 0 -16 16 0 23 -1 23 -125 18
-83 -3 -125 -1 -125 5 0 6 5 37 12 69 l12 58 149 0 c138 0 149 -1 141 -17z"/>
</g>
</svg>
