<?xml version="1.0" encoding="UTF-8"?>
<!DOCTYPE svg PUBLIC "-//W3C//DTD SVG 1.1//EN" "http://www.w3.org/Graphics/SVG/1.1/DTD/svg11.dtd">
<svg xmlns="http://www.w3.org/2000/svg" version="1.1" width="512px" height="512px" style="shape-rendering:geometricPrecision; text-rendering:geometricPrecision; image-rendering:optimizeQuality; fill-rule:evenodd; clip-rule:evenodd" xmlns:xlink="http://www.w3.org/1999/xlink">
<g><path style="opacity:0.994" fill="#000000" d="M 101.5,31.5 C 204.167,31.3333 306.834,31.5 409.5,32C 429.333,37.1667 441.833,49.6667 447,69.5C 447.667,97.5 447.667,125.5 447,153.5C 441.833,173.333 429.333,185.833 409.5,191C 306.833,191.667 204.167,191.667 101.5,191C 81.6667,185.833 69.1667,173.333 64,153.5C 63.3333,125.5 63.3333,97.5 64,69.5C 69.3488,49.6518 81.8488,36.9852 101.5,31.5 Z M 292.5,80.5 C 298.326,79.4887 301.826,81.822 303,87.5C 303.667,103.5 303.667,119.5 303,135.5C 301.134,142.347 296.968,144.18 290.5,141C 289.283,139.352 288.45,137.519 288,135.5C 287.333,119.5 287.333,103.5 288,87.5C 288.53,84.415 290.03,82.0817 292.5,80.5 Z M 324.5,80.5 C 330.326,79.4887 333.826,81.822 335,87.5C 335.667,103.5 335.667,119.5 335,135.5C 333.134,142.347 328.968,144.18 322.5,141C 321.283,139.352 320.45,137.519 320,135.5C 319.333,119.5 319.333,103.5 320,87.5C 320.53,84.415 322.03,82.0817 324.5,80.5 Z M 356.5,80.5 C 362.326,79.4887 365.826,81.822 367,87.5C 367.667,103.5 367.667,119.5 367,135.5C 365.134,142.347 360.968,144.18 354.5,141C 353.283,139.352 352.45,137.519 352,135.5C 351.333,119.5 351.333,103.5 352,87.5C 352.53,84.415 354.03,82.0817 356.5,80.5 Z M 388.5,80.5 C 394.326,79.4887 397.826,81.822 399,87.5C 399.667,103.5 399.667,119.5 399,135.5C 397.134,142.347 392.968,144.18 386.5,141C 385.283,139.352 384.45,137.519 384,135.5C 383.333,119.5 383.333,103.5 384,87.5C 384.53,84.415 386.03,82.0817 388.5,80.5 Z"/></g>
<g><path style="opacity:0.973" fill="#000000" d="M 239.5,207.5 C 250.167,207.5 260.833,207.5 271.5,207.5C 271.334,215.84 271.5,224.173 272,232.5C 298.667,259.167 325.333,285.833 352,312.5C 356.947,304.283 364.114,301.45 373.5,304C 378,305.833 381.167,309 383,313.5C 383.667,328.167 383.667,342.833 383,357.5C 381.167,362 378,365.167 373.5,367C 358.833,367.667 344.167,367.667 329.5,367C 320.518,362.527 317.351,355.36 320,345.5C 321.779,341.388 324.612,338.222 328.5,336C 304.32,311.653 279.986,287.486 255.5,263.5C 231.014,287.486 206.68,311.653 182.5,336C 190.717,340.947 193.55,348.114 191,357.5C 189.167,362 186,365.167 181.5,367C 166.833,367.667 152.167,367.667 137.5,367C 133,365.167 129.833,362 128,357.5C 127.333,342.833 127.333,328.167 128,313.5C 132.473,304.518 139.64,301.351 149.5,304C 153.612,305.779 156.778,308.612 159,312.5C 185.667,285.833 212.333,259.167 239,232.5C 239.5,224.173 239.666,215.84 239.5,207.5 Z"/></g>
<g><path style="opacity:0.985" fill="#000000" d="M 55.5,383.5 C 108.834,383.333 162.168,383.5 215.5,384C 228,387.167 235.833,395 239,407.5C 239.667,423.5 239.667,439.5 239,455.5C 235.833,468 228,475.833 215.5,479C 162.167,479.667 108.833,479.667 55.5,479C 43,475.833 35.1667,468 32,455.5C 31.3333,439.5 31.3333,423.5 32,407.5C 35.349,394.985 43.1824,386.985 55.5,383.5 Z M 116.5,416.5 C 122.326,415.489 125.826,417.822 127,423.5C 127.667,428.833 127.667,434.167 127,439.5C 125.134,446.347 120.968,448.18 114.5,445C 113.283,443.352 112.45,441.519 112,439.5C 110.887,432.285 111.554,425.285 114,418.5C 114.995,417.934 115.828,417.267 116.5,416.5 Z M 148.5,416.5 C 154.326,415.489 157.826,417.822 159,423.5C 159.667,428.833 159.667,434.167 159,439.5C 157.134,446.347 152.968,448.18 146.5,445C 145.283,443.352 144.45,441.519 144,439.5C 142.887,432.285 143.554,425.285 146,418.5C 146.995,417.934 147.828,417.267 148.5,416.5 Z M 180.5,416.5 C 186.326,415.489 189.826,417.822 191,423.5C 191.667,428.833 191.667,434.167 191,439.5C 189.134,446.347 184.968,448.18 178.5,445C 177.283,443.352 176.45,441.519 176,439.5C 174.887,432.285 175.554,425.285 178,418.5C 178.995,417.934 179.828,417.267 180.5,416.5 Z M 212.5,416.5 C 218.326,415.489 221.826,417.822 223,423.5C 223.667,428.833 223.667,434.167 223,439.5C 221.134,446.347 216.968,448.18 210.5,445C 209.283,443.352 208.45,441.519 208,439.5C 206.887,432.285 207.554,425.285 210,418.5C 210.995,417.934 211.828,417.267 212.5,416.5 Z"/></g>
<g><path style="opacity:0.985" fill="#000000" d="M 295.5,383.5 C 348.834,383.333 402.168,383.5 455.5,384C 468,387.167 475.833,395 479,407.5C 479.667,423.5 479.667,439.5 479,455.5C 475.833,468 468,475.833 455.5,479C 402.167,479.667 348.833,479.667 295.5,479C 283,475.833 275.167,468 272,455.5C 271.333,439.5 271.333,423.5 272,407.5C 275.349,394.985 283.182,386.985 295.5,383.5 Z M 356.5,416.5 C 362.326,415.489 365.826,417.822 367,423.5C 367.667,428.833 367.667,434.167 367,439.5C 365.134,446.347 360.968,448.18 354.5,445C 353.283,443.352 352.45,441.519 352,439.5C 350.887,432.285 351.554,425.285 354,418.5C 354.995,417.934 355.828,417.267 356.5,416.5 Z M 388.5,416.5 C 394.326,415.489 397.826,417.822 399,423.5C 399.667,428.833 399.667,434.167 399,439.5C 397.134,446.347 392.968,448.18 386.5,445C 385.283,443.352 384.45,441.519 384,439.5C 382.887,432.285 383.554,425.285 386,418.5C 386.995,417.934 387.828,417.267 388.5,416.5 Z M 420.5,416.5 C 426.326,415.489 429.826,417.822 431,423.5C 431.667,428.833 431.667,434.167 431,439.5C 429.134,446.347 424.968,448.18 418.5,445C 417.283,443.352 416.45,441.519 416,439.5C 414.887,432.285 415.554,425.285 418,418.5C 418.995,417.934 419.828,417.267 420.5,416.5 Z M 452.5,416.5 C 458.326,415.489 461.826,417.822 463,423.5C 463.667,428.833 463.667,434.167 463,439.5C 461.134,446.347 456.968,448.18 450.5,445C 449.283,443.352 448.45,441.519 448,439.5C 446.887,432.285 447.554,425.285 450,418.5C 450.995,417.934 451.828,417.267 452.5,416.5 Z"/></g>
</svg>
